<svg width="101" height="120" viewBox="0 0 101 120" fill="none" xmlns="http://www.w3.org/2000/svg">
<path d="M100.042 43.4723C100.21 45.4307 100.296 47.4201 100.296 49.4409C100.296 57.6262 98.9722 65.9208 96.3244 74.3243C93.7867 82.619 89.9794 90.2055 84.9041 97.0813C79.9392 103.957 73.8161 109.523 66.5345 113.779C59.2526 117.927 50.9221 120 41.544 120C34.152 120 27.7524 118.691 22.3462 116.072C18.3028 113.989 14.7753 111.362 11.761 108.198C39.005 91.4538 70.916 67.1702 100.042 43.4723ZM57.5977 0C64.9896 7.86228e-05 71.3335 1.3643 76.6293 4.09267C82.0356 6.71204 86.4494 10.3691 89.8697 15.0622C93.4001 19.6459 95.9923 24.8846 97.6472 30.7779C98.0467 32.1117 98.398 33.4629 98.7071 34.8301C51.6835 66.1197 3.05961 89.8723 0 56.8594C0.627912 53.1316 1.51062 49.4035 2.65109 45.6757C5.29908 37.381 9.10647 29.7959 14.0714 22.92C19.1467 16.0442 25.3253 10.5323 32.6072 6.38494C39.8891 2.12861 48.2195 0 57.5977 0Z" fill="#FBBF24"/>
</svg>
