<svg width="598" height="120" viewBox="0 0 598 120" fill="none" xmlns="http://www.w3.org/2000/svg">
<path d="M539.233 119.327C535.831 119.327 532.814 118.458 530.18 116.721C527.656 114.984 526.449 112.379 526.558 108.905C526.778 102.826 527.217 96.0957 527.875 88.7139C528.643 81.3321 529.521 73.8418 530.509 66.2429C531.497 58.5354 532.484 51.1537 533.472 44.0975C534.569 37.0414 535.557 30.7452 536.435 25.2088C534.46 24.9917 532.539 24.8289 530.674 24.7203C528.808 24.6118 527.107 24.5575 525.571 24.5575C520.962 24.5575 516.791 24.9917 513.06 25.8602C509.439 26.7286 506.366 28.2484 503.842 30.4195C503.842 23.5805 504.391 18.0442 505.488 13.8105C506.695 9.46826 508.835 6.32015 511.908 4.36614C515.09 2.41214 519.699 1.43514 525.735 1.43514C530.125 1.43514 535.008 1.81508 540.386 2.57497C545.873 3.22631 551.415 3.93192 557.012 4.69181C562.608 5.4517 567.821 5.83165 572.65 5.83165C576.6 5.83165 580.112 5.4517 583.185 4.69181C586.367 3.93192 588.782 2.57497 590.428 0.620971C592.842 1.38086 594.708 3.06347 596.025 5.66882C597.342 8.1656 598 10.9338 598 13.9733C598 16.6872 597.396 19.3468 596.189 21.9522C594.982 24.4489 593.062 26.5658 590.428 28.3027C587.794 29.931 584.227 30.7452 579.728 30.7452C577.643 30.7452 575.064 30.5823 571.991 30.2567C569.028 29.8225 565.846 29.3882 562.444 28.954C561.237 35.4674 559.975 43.2834 558.658 52.402C557.451 61.4122 556.408 71.1279 555.53 81.5493C554.762 91.9706 554.268 102.555 554.049 113.302C552.073 115.364 549.714 116.884 546.97 117.861C544.336 118.838 541.758 119.327 539.233 119.327Z" fill="#FBBF24"/>
<path d="M343.974 119.489C340.901 119.489 338.158 118.241 335.743 115.744C333.439 113.139 332.286 108.362 332.286 101.415C332.286 100.221 332.286 99.1896 332.286 98.3211C332.396 97.3441 332.451 96.6385 332.451 96.2043C332.89 91.862 333.494 86.4885 334.262 80.0837C335.14 73.5704 336.127 66.7857 337.225 59.7296C338.322 52.5649 339.42 45.6716 340.517 39.0497C341.724 32.4278 342.822 26.6743 343.809 21.7893C344.797 16.7958 345.62 13.3763 346.278 11.5308C347.486 8.27415 349.626 5.72309 352.698 3.87764C355.881 1.92364 359.118 0.946633 362.41 0.946633C365.264 0.946633 367.843 1.7608 370.147 3.38915C372.561 5.01748 374.208 7.78565 375.086 11.6937C374.427 13.8648 373.385 17.7185 371.958 23.2548C370.531 28.6826 368.995 35.3588 367.349 43.2834C365.703 51.2079 364.111 59.9467 362.575 69.4996C361.148 79.0525 359.996 89.0396 359.118 99.4609C359.008 101.306 358.844 103.477 358.624 105.974C358.405 108.362 358.24 110.805 358.131 113.302C356.814 114.713 354.838 116.124 352.204 117.535C349.571 118.838 346.827 119.489 343.974 119.489Z" fill="#FBBF24"/>
<path d="M300.835 119.815C296.994 119.815 293.647 118.892 290.794 117.047C288.05 115.093 285.636 112.596 283.551 109.557C281.576 106.517 279.82 103.206 278.283 99.6238C276.857 95.9329 275.485 92.4048 274.168 89.0396C272.193 83.6118 270.382 78.8896 268.736 74.8731C267.09 70.748 265.279 67.2742 263.304 64.4517C261.218 72.702 259.518 80.6265 258.201 88.2254C256.993 95.8243 256.225 104.292 255.896 113.627C253.921 115.473 251.671 116.884 249.147 117.861C246.733 118.838 244.263 119.327 241.739 119.327C237.898 119.327 234.496 118.024 231.533 115.419C228.57 112.705 227.089 108.2 227.089 101.903C227.089 97.5612 227.747 92.6762 229.064 87.2484C230.381 81.8206 231.972 76.23 233.838 70.4766C235.813 64.7231 237.789 59.1325 239.764 53.7047C241.739 48.2769 243.386 43.3919 244.702 39.0497C246.019 34.5989 246.678 31.0708 246.678 28.4655C246.678 25.7516 245.745 24.3947 243.879 24.3947C241.794 24.3947 239.27 25.9687 236.307 29.1168C233.344 32.1564 230.326 36.4444 227.254 41.9807L226.266 41.655C226.266 35.1417 227.692 29.3339 230.546 24.2318C233.399 19.1297 237.24 14.8418 242.069 11.368C247.007 7.78565 252.659 5.07175 259.024 3.2263C265.498 1.38086 272.248 0.45814 279.271 0.45814C288.599 0.45814 296.171 1.92364 301.987 4.85464C307.804 7.67709 312.084 11.368 314.827 15.9273C317.68 20.3781 319.107 25.1546 319.107 30.2567C319.107 35.4674 317.735 40.5695 314.992 45.563C312.358 50.5566 308.572 54.736 303.634 58.1012C298.805 61.3579 293.044 63.2576 286.349 63.8004C288.654 65.5373 290.629 67.7627 292.275 70.4766C293.921 73.0819 295.622 76.0672 297.378 79.4324C298.915 82.472 300.725 85.403 302.811 88.2254C304.896 90.9393 307.749 92.2963 311.37 92.2963C313.236 92.2963 314.772 91.862 315.979 90.9936C317.187 90.0166 318.229 88.4425 319.107 86.2714L320.095 86.7599C320.643 88.3883 320.973 89.9623 321.082 91.4821C321.302 93.0019 321.412 94.4131 321.412 95.7158C321.412 102.555 319.491 108.308 315.65 112.976C311.809 117.535 306.871 119.815 300.835 119.815ZM271.534 49.471C275.485 49.471 278.887 48.6026 281.74 46.8657C284.703 45.0203 286.953 42.7949 288.489 40.1895C290.135 37.4756 290.958 34.7617 290.958 32.0479C290.958 28.6826 289.642 25.7516 287.008 23.2548C284.484 20.6495 280.314 19.3468 274.497 19.3468C273.619 19.3468 272.686 19.4011 271.699 19.5097C270.821 19.5097 269.943 19.5639 269.065 19.6725C269.175 20.4324 269.23 21.1923 269.23 21.9522C269.23 22.6035 269.23 22.9292 269.23 22.9292C269.23 27.9227 269.01 32.7535 268.571 37.4214C268.242 42.0893 267.748 45.9973 267.09 49.1454C267.858 49.2539 268.571 49.3625 269.23 49.471C269.998 49.471 270.766 49.471 271.534 49.471Z" fill="#FBBF24"/>
<path d="M191.745 119.327C188.782 119.327 185.874 118.621 183.02 117.21C180.277 115.69 178.027 113.302 176.271 110.045C174.515 106.788 173.638 102.609 173.638 97.5069C173.638 92.9476 174.241 87.6284 175.448 81.5493C176.765 75.3616 178.192 68.9568 179.728 62.3349C181.374 55.713 182.801 49.2539 184.008 42.9577C185.215 36.6615 185.764 31.0708 185.654 26.1858C185.654 21.5179 185.106 18.207 184.008 16.253L183.843 15.7645C185.051 12.2907 187.191 9.57681 190.263 7.62281C193.336 5.66881 196.573 4.69181 199.975 4.69181C203.816 4.69181 207.218 6.15731 210.181 9.08831C213.254 11.9108 214.791 16.6872 214.791 23.4177C214.791 27 214.352 31.288 213.474 36.2815C212.596 41.1665 211.553 46.4315 210.346 52.0764C209.139 57.6127 207.877 63.0948 206.56 68.5226C205.353 73.9504 204.31 78.9439 203.432 83.5033C202.554 88.0626 202.115 91.8078 202.115 94.7388C202.115 97.7783 202.554 99.8952 203.432 101.089C204.31 102.175 205.298 102.718 206.395 102.718C207.603 102.718 208.755 102.283 209.852 101.415C210.95 100.438 211.663 99.5695 211.992 98.8096L213.309 99.1353C213.199 103.043 212.047 106.517 209.852 109.557C207.767 112.596 205.078 114.984 201.786 116.721C198.604 118.458 195.257 119.327 191.745 119.327Z" fill="#FBBF24"/>
<path d="M116.524 119.327C112.573 119.327 109.061 117.753 105.988 114.604C102.916 111.348 101.379 106.788 101.379 100.926C101.379 98.104 101.708 94.9016 102.367 91.3193C103.025 87.7369 103.794 84.1003 104.671 80.4094C105.549 76.61 106.318 73.0819 106.976 69.8252C107.635 66.46 107.964 63.6918 107.964 61.5207C107.964 59.2411 107.525 57.4499 106.647 56.1472C105.879 54.736 104.836 54.0304 103.519 54.0304C101.434 54.0304 99.2941 55.4416 97.0993 58.2641L96.1116 57.6127C96.0019 55.8758 96.386 53.8133 97.2639 51.425C98.1419 49.0368 99.5136 46.7571 101.379 44.586C103.245 42.3064 105.604 40.4066 108.458 38.8869C111.421 37.3671 114.877 36.6072 118.828 36.6072C124.644 36.6072 128.869 38.2898 131.503 41.655C134.137 44.9117 135.454 48.874 135.454 53.5419C135.454 54.3018 135.399 55.1159 135.289 55.9844C135.289 56.7443 135.234 57.5042 135.125 58.2641C139.075 51.2079 143.191 45.8344 147.471 42.1435C151.86 38.3441 155.921 36.4444 159.652 36.4444C163.164 36.4444 165.743 37.8013 167.389 40.5152C169.035 43.2291 169.858 46.4858 169.858 50.2852C169.858 53.759 169.145 57.2871 167.718 60.8694C166.401 64.4517 164.371 67.437 161.627 69.8252C158.993 72.1049 155.756 73.1905 151.915 73.0819L151.257 72.7562C151.147 69.9338 150.214 67.7084 148.458 66.0801C146.702 64.4517 144.727 63.6376 142.532 63.6376C139.569 63.6376 136.771 65.1031 134.137 68.0341C131.613 70.9651 130.351 75.1987 130.351 80.7351C130.351 84.1003 130.735 87.7369 131.503 91.6449C132.271 95.5529 132.656 98.8639 132.656 101.578C132.656 104.834 131.887 107.82 130.351 110.534C128.815 113.248 126.839 115.419 124.425 117.047C122.011 118.567 119.377 119.327 116.524 119.327Z" fill="#FBBF24"/>
<path d="M22.2226 119.327C17.2843 119.327 13.1141 117.318 9.71212 113.302C6.41988 109.285 4.77375 103.912 4.77375 97.1813C4.77375 93.4904 5.21272 89.5281 6.09065 85.2944C6.96858 81.0607 7.84651 77.0442 8.72444 73.2447C9.49264 70.4223 10.0962 67.8169 10.5352 65.4287C11.0839 62.9319 11.3582 60.9237 11.3582 59.4039C11.3582 57.4499 10.9193 56.0387 10.0413 55.1702C9.27315 54.3018 8.34035 53.8675 7.24294 53.8675C6.14552 53.8675 5.04811 54.2475 3.95069 55.0074C2.85328 55.6587 1.97535 56.69 1.3169 58.1012L0 57.6127C0 53.1619 1.09741 49.3625 3.29224 46.2144C5.48707 43.0663 8.28548 40.678 11.6875 39.0497C15.0895 37.4214 18.5463 36.6072 22.058 36.6072C24.9113 36.6072 27.6548 37.2042 30.2886 38.3984C32.9224 39.4839 35.0624 41.2208 36.7085 43.609C38.4644 45.9973 39.3423 48.9825 39.3423 52.5649C39.3423 54.736 39.0131 57.3413 38.3546 60.3809C37.8059 63.4204 37.1475 66.5686 36.3793 69.8252C35.6111 73.1905 34.8429 76.61 34.0747 80.0837C33.4163 83.449 33.087 86.4343 33.087 89.0396C33.087 91.4278 33.4711 93.3818 34.2393 94.9016C35.0075 96.4214 36.1598 97.1813 37.6962 97.1813C40.5495 97.1813 43.732 94.5759 47.2437 89.3653C50.8652 84.1546 53.7733 77.1527 55.9681 68.3597C56.4071 66.6228 56.7912 64.7774 57.1204 62.8234C57.4496 60.8694 57.6143 58.8611 57.6143 56.7985C57.6143 55.1702 57.5045 53.5419 57.285 51.9135C57.0656 50.1766 56.7363 48.4398 56.2974 46.7029V45.563C58.0532 42.632 60.3029 40.4066 63.0465 38.8869C65.8997 37.3671 68.753 36.6072 71.6063 36.6072C75.4472 36.6072 78.9041 37.9099 81.9769 40.5152C85.0496 43.1205 86.586 46.92 86.586 51.9135C86.586 54.8445 86.0373 58.2641 84.9399 62.1721C83.8425 65.9715 82.6353 69.9338 81.3184 74.0589C80.0015 78.0755 78.7944 82.0377 77.6969 85.9458C76.5995 89.8538 76.0508 93.3275 76.0508 96.3671C76.0508 100.818 77.6421 103.043 80.8246 103.043C81.7025 103.043 82.745 102.826 83.9522 102.392C85.2691 101.849 86.4763 100.818 87.5737 99.2981L88.726 99.6238C88.726 103.532 87.6285 107.006 85.4337 110.045C83.3486 112.976 80.66 115.256 77.3677 116.884C74.0755 118.512 70.6735 119.327 67.1618 119.327C62.6624 119.327 58.6019 117.698 54.9805 114.442C51.4687 111.185 49.7129 105.866 49.7129 98.4839V98.1583C45.2135 105.757 40.5495 111.185 35.7208 114.442C30.8922 117.698 26.3928 119.327 22.2226 119.327Z" fill="#FBBF24"/>
<path d="M486.038 43.4723C486.206 45.4307 486.292 47.4201 486.292 49.4409C486.292 57.6262 484.968 65.9208 482.32 74.3243C479.783 82.619 475.975 90.2055 470.9 97.0813C465.935 103.957 459.812 109.523 452.53 113.779C445.249 117.927 436.918 120 427.54 120C420.148 120 413.748 118.691 408.342 116.072C404.299 113.989 400.771 111.362 397.757 108.198C425.001 91.4538 456.912 67.1702 486.038 43.4723ZM443.594 0C450.986 7.86228e-05 457.33 1.3643 462.625 4.09267C468.032 6.71204 472.445 10.3691 475.866 15.0622C479.396 19.6459 481.988 24.8846 483.643 30.7779C484.043 32.1117 484.394 33.4629 484.703 34.8301C437.68 66.1197 389.056 89.8723 385.996 56.8594C386.624 53.1316 387.507 49.4035 388.647 45.6757C391.295 37.381 395.102 29.7959 400.067 22.92C405.143 16.0442 411.321 10.5323 418.603 6.38494C425.885 2.12861 434.216 0 443.594 0Z" fill="#FBBF24"/>
</svg>
